HIERARCHY
ROOT Hips
{
  OFFSET 76.347 92.6806 -49.6304
  CHANNELS 6 Xposition Yposition Zposition Zrotation Xrotation Yrotation
  JOINT RightUpLeg
  {
    OFFSET -9.2536 -1.56971 -0.009835
    CHANNELS 3 Zrotation Xrotation Yrotation
    JOINT RightLeg
    {
      OFFSET 0.003613 -41.8721 0.033096
      CHANNELS 3 Zrotation Xrotation Yrotation
      JOINT RightFoot
      {
        OFFSET 0.190023 -41.7536 -0.162077
        CHANNELS 3 Zrotation Xrotation Yrotation
        End Site
        {
          OFFSET 0 -7.69 17.5
        }
      }
    }
  }
  JOINT LeftUpLeg
  {
    OFFSET 9.25993 -1.60807 -0.003591
    CHANNELS 3 Zrotation Xrotation Yrotation
    JOINT LeftLeg
    {
      OFFSET 0.056181 -41.8768 -0.046918
      CHANNELS 3 Zrotation Xrotation Yrotation
      JOINT LeftFoot
      {
        OFFSET 0.206009 -42.0177 -0.454554
        CHANNELS 3 Zrotation Xrotation Yrotation
        End Site
        {
          OFFSET 0 -7.69 17.5
        }
      }
    }
  }
  JOINT Spine
  {
    OFFSET 0.055174 14.3087 0.014143
    CHANNELS 3 Zrotation Xrotation Yrotation
    JOINT Spine1
    {
      OFFSET 0.013927 9.70629 0.00545
      CHANNELS 3 Zrotation Xrotation Yrotation
      JOINT Spine2
      {
        OFFSET 0.014023 10.1242 0.014512
        CHANNELS 3 Zrotation Xrotation Yrotation
        JOINT Spine3
        {
          OFFSET 0.012086 9.7191 0.009001
          CHANNELS 3 Zrotation Xrotation Yrotation
          JOINT Neck
          {
            OFFSET 0.131707 10.3859 0.054297
            CHANNELS 3 Zrotation Xrotation Yrotation
            JOINT Head
            {
              OFFSET -0.005552 9.48088 0.122183
              CHANNELS 3 Zrotation Xrotation Yrotation
              End Site
              {
                OFFSET 0 15.95 0
              }
            }
          }
          JOINT RightShoulder
          {
            OFFSET -3.20137 6.92944 0.018295
            CHANNELS 3 Zrotation Xrotation Yrotation
            JOINT RightArm
            {
              OFFSET -12.7595 0.009634 0.00435
              CHANNELS 3 Zrotation Xrotation Yrotation
              JOINT RightForeArm
              {
                OFFSET -26.5076 -0.004773 -0.015002
                CHANNELS 3 Zrotation Xrotation Yrotation
                JOINT RightHand
                {
                  OFFSET -26.002 -5.9e-05 -0.011656
                  CHANNELS 3 Zrotation Xrotation Yrotation
                  JOINT RightHandThumb1
                  {
                    OFFSET -2.48905 0.190105 3.12053
                    CHANNELS 3 Zrotation Xrotation Yrotation
                    JOINT RightHandThumb2
                    {
                      OFFSET -3.68274 0 0
                      CHANNELS 3 Zrotation Xrotation Yrotation
                      JOINT RightHandThumb3
                      {
                        OFFSET -2.55832 0 0
                        CHANNELS 3 Zrotation Xrotation Yrotation
                        End Site
                        {
                          OFFSET -2.194 0 0
                        }
                      }
                    }
                  }
                  JOINT RightInHandIndex
                  {
                    OFFSET -3.22368 0.508421 1.97842
                    CHANNELS 3 Zrotation Xrotation Yrotation
                    JOINT RightHandIndex1
                    {
                      OFFSET -5.21684 -0.091368 0.999158
                      CHANNELS 3 Zrotation Xrotation Yrotation
                      JOINT RightHandIndex2
                      {
                        OFFSET -3.61937 0 0
                        CHANNELS 3 Zrotation Xrotation Yrotation
                        JOINT RightHandIndex3
                        {
                          OFFSET -2.0521 0 0
                          CHANNELS 3 Zrotation Xrotation Yrotation
                          End Site
                          {
                            OFFSET -1.805 0 0
                          }
                        }
                      }
                    }
                  }
                  JOINT RightInHandMiddle
                  {
                    OFFSET -3.38211 0.517263 0.756737
                    CHANNELS 3 Zrotation Xrotation Yrotation
                    JOINT RightHandMiddle1
                    {
                      OFFSET -5.17411 -0.084 0.313895
                      CHANNELS 3 Zrotation Xrotation Yrotation
                      JOINT RightHandMiddle2
                      {
                        OFFSET -3.94947 0 0
                        CHANNELS 3 Zrotation Xrotation Yrotation
                        JOINT RightHandMiddle3
                        {
                          OFFSET -2.47579 0 0
                          CHANNELS 3 Zrotation Xrotation Yrotation
                          End Site
                          {
                            OFFSET -1.975 0 0
                          }
                        }
                      }
                    }
                  }
                  JOINT RightInHandRing
                  {
                    OFFSET -3.36516 0.537895 -0.128947
                    CHANNELS 3 Zrotation Xrotation Yrotation
                    JOINT RightHandRing1
                    {
                      OFFSET -4.63474 -0.022105 -0.478947
                      CHANNELS 3 Zrotation Xrotation Yrotation
                      JOINT RightHandRing2
                      {
                        OFFSET -3.44238 0 0
                        CHANNELS 3 Zrotation Xrotation Yrotation
                        JOINT RightHandRing3
                        {
                          OFFSET -2.3881 0 0
                          CHANNELS 3 Zrotation Xrotation Yrotation
                          End Site
                          {
                            OFFSET -1.857 0 0
                          }
                        }
                      }
                    }
                  }
                  JOINT RightInHandPinky
                  {
                    OFFSET -3.16105 0.469368 -1.20179
                    CHANNELS 3 Zrotation Xrotation Yrotation
                    JOINT RightHandPinky1
                    {
                      OFFSET -4.14105 -0.022105 -1.09053
                      CHANNELS 3 Zrotation Xrotation Yrotation
                      JOINT RightHandPinky2
                      {
                        OFFSET -2.75653 0 0
                        CHANNELS 3 Zrotation Xrotation Yrotation
                        JOINT RightHandPinky3
                        {
                          OFFSET -1.74189 0 0
                          CHANNELS 3 Zrotation Xrotation Yrotation
                          End Site
                          {
                            OFFSET -1.645 0 0
                          }
                        }
                      }
                    }
                  }
                }
              }
            }
          }
          JOINT LeftShoulder
          {
            OFFSET 3.20143 6.91127 -0.000395
            CHANNELS 3 Zrotation Xrotation Yrotation
            JOINT LeftArm
            {
              OFFSET 12.7779 -0.028682 -0.037301
              CHANNELS 3 Zrotation Xrotation Yrotation
              JOINT LeftForeArm
              {
                OFFSET 26.4982 -0.116492 -0.017681
                CHANNELS 3 Zrotation Xrotation Yrotation
                JOINT LeftHand
                {
                  OFFSET 26.0046 -0.058588 -0.01331
                  CHANNELS 3 Zrotation Xrotation Yrotation
                  JOINT LeftHandThumb1
                  {
                    OFFSET 2.48905 0.190105 3.12053
                    CHANNELS 3 Zrotation Xrotation Yrotation
                    JOINT LeftHandThumb2
                    {
                      OFFSET 3.68274 0 0
                      CHANNELS 3 Zrotation Xrotation Yrotation
                      JOINT LeftHandThumb3
                      {
                        OFFSET 2.55832 0 0
                        CHANNELS 3 Zrotation Xrotation Yrotation
                        End Site
                        {
                          OFFSET 2.194 0 0
                        }
                      }
                    }
                  }
                  JOINT LeftInHandIndex
                  {
                    OFFSET 3.22368 0.508421 1.97842
                    CHANNELS 3 Zrotation Xrotation Yrotation
                    JOINT LeftHandIndex1
                    {
                      OFFSET 5.21684 -0.091368 0.999158
                      CHANNELS 3 Zrotation Xrotation Yrotation
                      JOINT LeftHandIndex2
                      {
                        OFFSET 3.61937 0 0
                        CHANNELS 3 Zrotation Xrotation Yrotation
                        JOINT LeftHandIndex3
                        {
                          OFFSET 2.0521 0 0
                          CHANNELS 3 Zrotation Xrotation Yrotation
                          End Site
                          {
                            OFFSET 1.805 0 0
                          }
                        }
                      }
                    }
                  }
                  JOINT LeftInHandMiddle
                  {
                    OFFSET 3.38211 0.517263 0.756737
                    CHANNELS 3 Zrotation Xrotation Yrotation
                    JOINT LeftHandMiddle1
                    {
                      OFFSET 5.17411 -0.084 0.313895
                      CHANNELS 3 Zrotation Xrotation Yrotation
                      JOINT LeftHandMiddle2
                      {
                        OFFSET 3.94947 0 0
                        CHANNELS 3 Zrotation Xrotation Yrotation
                        JOINT LeftHandMiddle3
                        {
                          OFFSET 2.47579 0 0
                          CHANNELS 3 Zrotation Xrotation Yrotation
                          End Site
                          {
                            OFFSET 1.975 0 0
                          }
                        }
                      }
                    }
                  }
                  JOINT LeftInHandRing
                  {
                    OFFSET 3.36516 0.537895 -0.128947
                    CHANNELS 3 Zrotation Xrotation Yrotation
                    JOINT LeftHandRing1
                    {
                      OFFSET 4.63474 -0.022105 -0.478947
                      CHANNELS 3 Zrotation Xrotation Yrotation
                      JOINT LeftHandRing2
                      {
                        OFFSET 3.44238 0 0
                        CHANNELS 3 Zrotation Xrotation Yrotation
                        JOINT LeftHandRing3
                        {
                          OFFSET 2.3881 0 0
                          CHANNELS 3 Zrotation Xrotation Yrotation
                          End Site
                          {
                            OFFSET 1.857 0 0
                          }
                        }
                      }
                    }
                  }
                  JOINT LeftInHandPinky
                  {
                    OFFSET 3.16105 0.469368 -1.20179
                    CHANNELS 3 Zrotation Xrotation Yrotation
                    JOINT LeftHandPinky1
                    {
                      OFFSET 4.14105 -0.022105 -1.09053
                      CHANNELS 3 Zrotation Xrotation Yrotation
                      JOINT LeftHandPinky2
                      {
                        OFFSET 2.75653 0 0
                        CHANNELS 3 Zrotation Xrotation Yrotation
                        JOINT LeftHandPinky3
                        {
                          OFFSET 1.74189 0 0
                          CHANNELS 3 Zrotation Xrotation Yrotation
                          End Site
                          {
                            OFFSET 1.645 0 0
                          }
                        }
                      }
                    }
                  }
                }
              }
            }
          }
        }
      }
    }
  }
}
MOTION
Frames: 3
Frame Time: 0.00833333
5.999391545457787061e+02 -1.393440994126829598e-04 -4.058474610916827374e-01 4.466697108889416262e-02 9.046948826488955264e-01 8.982753058237206156e-01 -1.252638699126046751e+00 -8.357168344740925070e-01 -1.839761940056072742e+00 -2.333677149787182215e-01 3.117135975153224048e-01 -3.721612191682281967e-01 5.080317683251573957e-01 -5.927083016348481115e-01 6.227118248919737836e-02 -5.120907764517413918e-01 -1.121137927812453805e+00 -6.838540921668072592e-01 3.552717356854621644e-01 5.471482906433751403e-02 -9.014345566888382066e-01 -5.129881006304621849e-01 1.546786530617500974e-02 -1.405919804409785923e-01 4.951981058493201138e-01 5.144048705131755161e-01 -2.799137968828311340e-01 1.171524198364734537e-01 1.541481416248121628e-01 -5.847405088805518458e-02 1.825628627252804392e-01 3.430544354341853452e-01 -4.796524893555123570e-02 -8.523704150140219704e-02 9.734680583435498247e-02 8.072598723524330999e-02 -2.735633358193941600e+00 8.253601410375588365e-01 -3.515340875081334748e-01 -6.288921324693509396e-01 -7.104306648141402170e-02 -1.509650211445962287e-01 7.293373503831845905e-01 -9.469927223181331954e-02 3.610444197793967469e-02 8.436976393465294155e-01 7.194632742095539157e-01 -3.086179857840309904e-01 1.578985393960848604e+01 -5.224860115072768707e+00 9.382445833762178111e+00 5.357005013465218068e-01 -1.708169718502848822e+00 5.240108790626497592e-01 0.000000000000000000e+00 0.000000000000000000e+00 0.000000000000000000e+00 -5.222923583193619185e-15 1.645863309431563675e-15 0.000000000000000000e+00 4.359345404315752470e-15 -3.420170763339951461e-15 0.000000000000000000e+00 -1.438236695509945800e-15 -2.585383657954735859e-16 3.300855204822442235e-15 0.000000000000000000e+00 0.000000000000000000e+00 0.000000000000000000e+00 0.000000000000000000e+00 -6.081925745500092634e-15 -6.998574247853223584e-15 0.000000000000000000e+00 -2.574818078787597455e-16 -1.326118077657470177e-14 -1.438236695509945800e-15 -2.585383657954735859e-16 3.300855204822442235e-15 0.000000000000000000e+00 2.954453110111193049e-15 -1.780958472198257875e-15 0.000000000000000000e+00 3.295195624172288267e-16 -6.443855075924055740e-15 0.000000000000000000e+00 -2.266183293300212490e-15 -6.882886762757214704e-15 -1.438236695509945800e-15 -2.585383657954735859e-16 3.300855204822442235e-15 0.000000000000000000e+00 0.000000000000000000e+00 0.000000000000000000e+00 0.000000000000000000e+00 -4.106466426375013056e-16 -9.709482907484872036e-15 0.000000000000000000e+00 -1.225108482829177239e-15 -9.587630223246174374e-15 -1.438236695509945800e-15 -2.585383657954735859e-16 3.300855204822442235e-15 0.000000000000000000e+00 0.000000000000000000e+00 0.000000000000000000e+00 0.000000000000000000e+00 -1.583080594764965570e-15 -1.168393248744432029e-14 0.000000000000000000e+00 -2.615933855468536722e-16 -8.905340117999849134e-15 -6.691072860055609084e-01 9.940237556023928667e-01 1.890488157633118949e-01 5.114951614499447352e+00 1.842200592744053234e-02 -5.681510817439173522e+00 -2.525164749831908750e+00 1.226135026172623821e+00 1.038159940564596084e+01 -1.353112740226874999e+00 -1.124932965851778377e+01 -2.070183379719803818e-01 0.000000000000000000e+00 0.000000000000000000e+00 0.000000000000000000e+00 2.151945842198596276e-14 -4.475999646671370865e-15 0.000000000000000000e+00 1.084305315307223652e-14 -6.436264837804845537e-15 0.000000000000000000e+00 -5.016621616247455293e-15 3.157096126740951995e-15 -3.357958378662248232e-15 0.000000000000000000e+00 0.000000000000000000e+00 0.000000000000000000e+00 0.000000000000000000e+00 -4.139711079636578264e-15 2.185557404076246516e-14 0.000000000000000000e+00 2.675228864530722123e-15 3.539626390124852375e-15 -5.016621616247455293e-15 3.157096126740951995e-15 -3.357958378662248232e-15 0.000000000000000000e+00 6.503076325755795234e-16 8.652798256514922198e-15 0.000000000000000000e+00 -2.697033253398890605e-15 2.125830048493817682e-14 0.000000000000000000e+00 -1.357309302535976483e-15 1.011504584874623113e-14 -5.016621616247455293e-15 3.157096126740951995e-15 -3.357958378662248232e-15 0.000000000000000000e+00 0.000000000000000000e+00 0.000000000000000000e+00 0.000000000000000000e+00 -4.481714018123873481e-15 2.208305414553965720e-14 0.000000000000000000e+00 -3.704936265977136455e-15 2.231828285087973584e-14 -5.016621616247455293e-15 3.157096126740951995e-15 -3.357958378662248232e-15 0.000000000000000000e+00 0.000000000000000000e+00 0.000000000000000000e+00 0.000000000000000000e+00 1.157018733512342582e-16 2.056060511387063391e-14 0.000000000000000000e+00 -7.809659014544007787e-15 2.314023443904717762e-14
5.999234502471362021e+02 -5.265167010063570921e-03 -4.316521953353019136e-01 1.038757716399307807e-02 9.389608118665254688e-01 9.159543868686069734e-01 -1.332210757742896767e+00 -7.760804957757411193e-01 -1.896592656864002802e+00 -2.112023735021609228e-01 3.409791144739443003e-01 -4.243848023349906518e-01 5.152677976765670520e-01 -6.315869528335908978e-01 6.854327442853624941e-02 -5.632205765604830772e-01 -1.082059796617999003e+00 -7.411375438235445756e-01 3.617547621292014903e-01 6.848526088180574567e-02 -9.378647707609966133e-01 -5.450612660186446856e-01 6.793035418348393473e-02 -1.354537340136899304e-01 5.208930287886055499e-01 5.243848585832514564e-01 -2.939960866574771181e-01 1.234560292436775730e-01 1.537371111213121089e-01 -5.950097212977601552e-02 1.926275770126941456e-01 3.406387118595903818e-01 -4.868458288992779520e-02 -8.596982381622947367e-02 1.035883638937006163e-01 8.103600871168972763e-02 -2.725780227959079927e+00 8.330613206059731546e-01 -3.293648345446693049e-01 -6.267395630862112599e-01 -7.013560410726331351e-02 -1.575588055037705770e-01 7.498555349502555867e-01 -9.583229485025278327e-02 5.336424766420705401e-02 7.595877628023146588e-01 7.798833719668961661e-01 -3.572602520260872994e-01 1.568436378578753221e+01 -5.347842229372870015e+00 8.959601698020389193e+00 5.861391696685620545e-01 -1.708722197266196119e+00 5.289351275211894299e-01 0.000000000000000000e+00 0.000000000000000000e+00 0.000000000000000000e+00 -5.795187950098205075e-15 1.597428779857336506e-15 0.000000000000000000e+00 3.321289923733869166e-15 -3.394527931090317333e-15 0.000000000000000000e+00 -1.946608319826787246e-15 -1.324546305809036784e-17 3.837082116255861864e-15 0.000000000000000000e+00 0.000000000000000000e+00 0.000000000000000000e+00 0.000000000000000000e+00 -6.501335096278230123e-15 -9.146081970931121861e-15 0.000000000000000000e+00 -6.275351069160517599e-16 -1.469292050870942162e-14 -1.946608319826787246e-15 -1.324546305809036784e-17 3.837082116255861864e-15 0.000000000000000000e+00 2.741372840088194742e-15 -2.967004518576391503e-15 0.000000000000000000e+00 -3.893541854006046124e-16 -9.356395349189441861e-15 0.000000000000000000e+00 -2.519306617956961609e-15 -7.316167300951858119e-15 -1.946608319826787246e-15 -1.324546305809036784e-17 3.837082116255861864e-15 0.000000000000000000e+00 0.000000000000000000e+00 0.000000000000000000e+00 0.000000000000000000e+00 -5.849572694616667657e-16 -1.167627775197658260e-14 0.000000000000000000e+00 -6.620209051670447401e-16 -9.760619874499042219e-15 -1.946608319826787246e-15 -1.324546305809036784e-17 3.837082116255861864e-15 0.000000000000000000e+00 0.000000000000000000e+00 0.000000000000000000e+00 0.000000000000000000e+00 -1.843399725355454400e-15 -1.361641887524305268e-14 0.000000000000000000e+00 -7.910991021648801928e-16 -9.317772007859246445e-15 -6.543907583294444885e-01 9.992894277248336454e-01 2.080595692861755830e-01 4.900344703569692761e+00 1.440568676985216900e-01 -5.430353451633960660e+00 -2.533061933841372237e+00 1.172653117549109503e+00 1.041068494902514985e+01 -1.526801712083744267e+00 -1.175241161090229802e+01 -8.431251158081609631e-02 0.000000000000000000e+00 0.000000000000000000e+00 0.000000000000000000e+00 2.235651941841656128e-14 -4.144574143204021931e-15 0.000000000000000000e+00 1.056715069285437764e-14 -6.451429008664954064e-15 0.000000000000000000e+00 -5.605783959059950969e-15 3.161899027841672364e-15 -3.199664909789066792e-15 0.000000000000000000e+00 0.000000000000000000e+00 0.000000000000000000e+00 0.000000000000000000e+00 -4.074019741565593794e-15 2.058956913524078240e-14 0.000000000000000000e+00 2.640508703491457961e-15 4.224750547150598683e-15 -5.605783959059950969e-15 3.161899027841672364e-15 -3.199664909789066792e-15 0.000000000000000000e+00 8.182637298061058060e-16 7.793333533331676845e-15 0.000000000000000000e+00 -2.159368742907791046e-15 2.045633106371458177e-14 0.000000000000000000e+00 -2.095212528806673462e-15 1.070453382913330901e-14 -5.605783959059950969e-15 3.161899027841672364e-15 -3.199664909789066792e-15 0.000000000000000000e+00 0.000000000000000000e+00 0.000000000000000000e+00 0.000000000000000000e+00 -4.237530710172133317e-15 2.022300527553837596e-14 0.000000000000000000e+00 -3.878530733651481924e-15 2.269027817638950306e-14 -5.605783959059950969e-15 3.161899027841672364e-15 -3.199664909789066792e-15 0.000000000000000000e+00 0.000000000000000000e+00 0.000000000000000000e+00 0.000000000000000000e+00 3.141558716987037031e-16 1.963071338021552787e-14 0.000000000000000000e+00 -8.170084814469020432e-15 2.371980081156367540e-14
5.999076155594090096e+02 -1.072687536472140268e-02 -4.569884190057716955e-01 -2.507957548585045687e-02 9.715929268607954583e-01 9.340847056911003587e-01 -1.414795856943785290e+00 -7.172039962695444526e-01 -1.954740381010689143e+00 -1.778142260215632708e-01 3.706765115923520981e-01 -4.754272643346175165e-01 5.240095528039044881e-01 -6.668001062683269753e-01 7.407534811076572911e-02 -6.123436808789931574e-01 -1.034906779484231043e+00 -8.037380050029234724e-01 3.614536035868156083e-01 8.238403260280541263e-02 -9.638687847099750572e-01 -5.717250274600302884e-01 1.156588930782999902e-01 -1.335879200410725887e-01 5.473473942493468636e-01 5.322214036271901705e-01 -3.089837768462689871e-01 1.297410257402571987e-01 1.526209276754071087e-01 -6.054598827727598193e-02 2.030703348585483070e-01 3.363643998026030757e-01 -4.955749555012563951e-02 -8.630885003665679511e-02 1.098928500743082265e-01 8.120285568307658575e-02 -2.691815724108990615e+00 8.419248228472789863e-01 -3.027229277525312345e-01 -6.222618762614291477e-01 -6.564038426049847996e-02 -1.669838018344222408e-01 7.706662439637117501e-01 -9.835045759866561932e-02 7.486816818349333047e-02 6.632078671314667329e-01 8.354251356593785927e-01 -4.089276152773134165e-01 1.551664654629675866e+01 -5.452068331909658561e+00 8.491776838824604212e+00 6.457593267447770957e-01 -1.708311703215313448e+00 5.249400166766992060e-01 0.000000000000000000e+00 0.000000000000000000e+00 0.000000000000000000e+00 -6.483008891357597875e-15 1.248308370414650991e-15 0.000000000000000000e+00 2.164204849810856258e-15 -3.227547481288299213e-15 0.000000000000000000e+00 -2.144511601543363685e-15 3.924053151402546922e-16 4.193553034236750963e-15 0.000000000000000000e+00 0.000000000000000000e+00 0.000000000000000000e+00 0.000000000000000000e+00 -6.505562486784726302e-15 -1.069202700468877866e-14 0.000000000000000000e+00 -9.010339938180676922e-16 -1.575210879565133929e-14 -2.144511601543363685e-15 3.924053151402546922e-16 4.193553034236750963e-15 0.000000000000000000e+00 2.445856629805931623e-15 -3.308418337842456480e-15 0.000000000000000000e+00 -1.345209660816297373e-15 -1.192832489026454573e-14 0.000000000000000000e+00 -2.761581646891074223e-15 -7.781583941258811974e-15 -2.144511601543363685e-15 3.924053151402546922e-16 4.193553034236750963e-15 0.000000000000000000e+00 0.000000000000000000e+00 0.000000000000000000e+00 0.000000000000000000e+00 -7.610923037303178092e-16 -1.325245378543721307e-14 0.000000000000000000e+00 -1.427287563661041843e-16 -9.929242006994538589e-15 -2.144511601543363685e-15 3.924053151402546922e-16 4.193553034236750963e-15 0.000000000000000000e+00 0.000000000000000000e+00 0.000000000000000000e+00 0.000000000000000000e+00 -2.284499239444951240e-15 -1.463001381083181178e-14 0.000000000000000000e+00 -1.282168353550116636e-15 -9.510513457256574647e-15 -6.370530371296176941e-01 1.002601751118090911e+00 2.228576579156744397e-01 4.664755477613691248e+00 2.767612024431845286e-01 -5.157084976233249130e+00 -2.532688649187182506e+00 1.100635867150389302e+00 1.040939385503964587e+01 -1.730935582447533427e+00 -1.223521670825124907e+01 6.300270758588633058e-02 0.000000000000000000e+00 0.000000000000000000e+00 0.000000000000000000e+00 2.289057637835723618e-14 -3.545425469879651118e-15 0.000000000000000000e+00 1.013892918405986654e-14 -6.160999227578401204e-15 0.000000000000000000e+00 -6.033015100037220488e-15 3.031666633052061064e-15 -3.052070512331376070e-15 0.000000000000000000e+00 0.000000000000000000e+00 0.000000000000000000e+00 0.000000000000000000e+00 -4.079960384254621174e-15 1.886051999573297785e-14 0.000000000000000000e+00 2.515430189406197870e-15 5.077856333868147807e-15 -6.033015100037220488e-15 3.031666633052061064e-15 -3.052070512331376070e-15 0.000000000000000000e+00 7.524396925852250922e-16 6.778913090993212737e-15 0.000000000000000000e+00 -1.572067226791476127e-15 1.923970885181182951e-14 0.000000000000000000e+00 -2.777135113356935748e-15 1.060055903335599317e-14 -6.033015100037220488e-15 3.031666633052061064e-15 -3.052070512331376070e-15 0.000000000000000000e+00 0.000000000000000000e+00 0.000000000000000000e+00 0.000000000000000000e+00 -3.901104326520682666e-15 1.797245888404987026e-14 0.000000000000000000e+00 -3.797426312489375752e-15 2.188613275135622152e-14 -6.033015100037220488e-15 3.031666633052061064e-15 -3.052070512331376070e-15 0.000000000000000000e+00 0.000000000000000000e+00 0.000000000000000000e+00 0.000000000000000000e+00 1.783408222840076701e-16 1.828367031958302774e-14 0.000000000000000000e+00 -8.252541456301657099e-15 2.265595262684109761e-14
